<svg width="28" height="29" viewBox="0 0 28 29" fill="none" xmlns="http://www.w3.org/2000/svg">
<path d="M20.4166 7.854H20.4283M8.16665 2.4165H19.8333C23.055 2.4165 25.6666 5.12145 25.6666 8.45817V20.5415C25.6666 23.8782 23.055 26.5832 19.8333 26.5832H8.16665C4.94499 26.5832 2.33331 23.8782 2.33331 20.5415V8.45817C2.33331 5.12145 4.94499 2.4165 8.16665 2.4165ZM18.6666 13.7386C18.8106 14.7442 18.6448 15.7713 18.1927 16.6736C17.7406 17.576 17.0253 18.3078 16.1485 18.7649C15.2718 19.2219 14.2782 19.381 13.3091 19.2195C12.34 19.058 11.4447 18.5841 10.7506 17.8652C10.0565 17.1464 9.599 16.2191 9.44306 15.2154C9.28712 14.2117 9.44072 13.1826 9.88203 12.2745C10.3233 11.3665 11.0299 10.6256 11.9011 10.1574C12.7724 9.68915 13.764 9.51738 14.735 9.6665C15.7254 9.81861 16.6423 10.2966 17.3503 11.0299C18.0583 11.7631 18.5198 12.7128 18.6666 13.7386Z" stroke="#1E1E1E" stroke-width="2" stroke-linecap="round" stroke-linejoin="round"/>
</svg>
