<svg width="28" height="29" viewBox="0 0 28 29" fill="none" xmlns="http://www.w3.org/2000/svg">
<path d="M18.6666 9.6665C20.5232 9.6665 22.3036 10.4303 23.6164 11.79C24.9291 13.1496 25.6666 14.9937 25.6666 16.9165V25.3748H21V16.9165C21 16.2756 20.7541 15.6609 20.3166 15.2077C19.879 14.7545 19.2855 14.4998 18.6666 14.4998C18.0478 14.4998 17.4543 14.7545 17.0167 15.2077C16.5791 15.6609 16.3333 16.2756 16.3333 16.9165V25.3748H11.6666V16.9165C11.6666 14.9937 12.4041 13.1496 13.7169 11.79C15.0297 10.4303 16.8101 9.6665 18.6666 9.6665Z" stroke="#1E1E1E" stroke-width="2" stroke-linecap="round" stroke-linejoin="round"/>
<path d="M6.99998 10.8748H2.33331V25.3748H6.99998V10.8748Z" stroke="#1E1E1E" stroke-width="2" stroke-linecap="round" stroke-linejoin="round"/>
<path d="M4.66665 7.24984C5.95531 7.24984 6.99998 6.16786 6.99998 4.83317C6.99998 3.49848 5.95531 2.4165 4.66665 2.4165C3.37798 2.4165 2.33331 3.49848 2.33331 4.83317C2.33331 6.16786 3.37798 7.24984 4.66665 7.24984Z" stroke="#1E1E1E" stroke-width="2" stroke-linecap="round" stroke-linejoin="round"/>
</svg>
