<svg width="63" height="62" viewBox="0 0 63 62" fill="none" xmlns="http://www.w3.org/2000/svg">
<g clip-path="url(#clip0_94_62)">
<path d="M50.5278 53.2396C37.207 66.7799 13.6711 63.4016 4.98543 51.4348C1.48008 46.5886 -0.392228 39.264 0.0690663 32.0451C0.136664 34.8649 0.682117 37.6531 1.68236 40.2917C2.12639 41.4523 5.58487 50.0973 14.7392 54.1321C27.9909 59.9692 49.1957 54.3952 53.9147 38.0592C57.832 24.5016 48.5321 9.95807 35.907 5.46838C23.7604 1.15326 13.1013 7.75256 12.4895 8.14843C11.4507 8.81419 10.4614 9.55373 9.5293 10.3613C13.9572 5.1635 19.9294 0.838543 27.2386 0.108292C39.7996 -1.14321 49.1414 8.94506 50.0097 9.90889C59.6969 20.693 62.8224 40.7442 50.5278 53.2396Z" fill="#37381B"/>
<path d="M58.3525 3.27268C57.3631 3.23205 56.3848 3.49258 55.5475 4.01963C54.7103 4.54667 54.0539 5.31526 53.6656 6.22318C53.1525 7.43289 53.0168 9.17369 53.9122 10.4031C55.8166 13.002 61.7024 12.3037 62.7928 9.66544C63.6833 7.50665 61.5988 3.49396 58.3525 3.27268Z" fill="#37381B"/>
</g>
<defs>
<clipPath id="clip0_94_62">
<rect width="63" height="62" fill="white"/>
</clipPath>
</defs>
</svg>
