<svg width="29" height="29" viewBox="0 0 29 29" fill="none" xmlns="http://www.w3.org/2000/svg">
<path d="M27.2358 7.75766C27.0923 7.1842 26.8 6.65877 26.3884 6.23445C25.9768 5.81012 25.4605 5.50193 24.8917 5.341C22.8133 4.8335 14.5 4.8335 14.5 4.8335C14.5 4.8335 6.18667 4.8335 4.10833 5.38933C3.53951 5.55026 3.02322 5.85845 2.61163 6.28278C2.20003 6.7071 1.9077 7.23253 1.76417 7.806C1.3838 9.91521 1.19774 12.0549 1.20833 14.1981C1.19477 16.3574 1.38084 18.5134 1.76417 20.6385C1.92241 21.1941 2.22129 21.6996 2.63192 22.106C3.04256 22.5124 3.55107 22.806 4.10833 22.9585C6.18667 23.5143 14.5 23.5143 14.5 23.5143C14.5 23.5143 22.8133 23.5143 24.8917 22.9585C25.4605 22.7976 25.9768 22.4894 26.3884 22.065C26.8 21.6407 27.0923 21.1153 27.2358 20.5418C27.6133 18.4485 27.7993 16.3251 27.7917 14.1981C27.8052 12.0387 27.6192 9.88276 27.2358 7.75766Z" stroke="#1E1E1E" stroke-width="2" stroke-linecap="round" stroke-linejoin="round"/>
<path d="M11.7812 18.1493L18.7292 14.1981L11.7812 10.2468V18.1493Z" stroke="#1E1E1E" stroke-width="2" stroke-linecap="round" stroke-linejoin="round"/>
</svg>
